<svg width="101" height="92" viewBox="0 0 101 92" fill="none" xmlns="http://www.w3.org/2000/svg">
<path d="M83.5425 62.4611C95.5144 58.7405 96.9711 50.5107 96.8888 48.1258C96.5936 39.5932 85.1016 35.0006 76.748 32.6423C73.4012 31.3816 69.0211 30.3684 63.9792 29.7122C63.3509 21.2738 54.6655 12.1786 60.4729 3.94808e-07C48.6152 10.6991 50.743 19.4723 53.881 26.6827C55.5191 30.447 56.6068 34.8208 56.2889 38.9454C55.7553 35.556 53.5675 31.8063 51.0352 28.8795C49.9494 28.8744 48.9209 28.8813 47.5772 28.9148C46.1121 23.7421 41.1546 16.5117 45.2819 7.85786C35.7323 16.4742 37.3287 23.5557 39.8369 29.3893H39.834C41.189 32.3249 42.1399 36.1448 41.877 39.5542C41.3419 36.1576 38.7668 32.3194 36.1394 29.8312C24.9769 31.4005 17.2702 34.7433 17.2702 38.6134C17.2702 48.8133 64.5859 52.1226 80.2316 42.9662C86.159 40.3433 91.6106 44.5111 91.7415 48.3016C91.7784 49.3657 91.3772 50.483 90.6176 51.5898C88.3248 50.1628 85.7047 48.8613 82.8103 47.7102C81.4194 54.2797 79.4745 59.8793 76.5849 63.7993C70.5539 71.9818 62.837 77.5377 50.5002 77.5377C38.1644 77.5377 30.4471 71.9818 24.4155 63.7993C21.5266 59.8796 19.5816 54.2797 18.1907 47.7102C7.07543 52.1277 0 58.7769 0 66.2148C0 79.5128 22.6102 92 50.5002 92C83.3388 92 108.965 74.6648 98.7101 59.0244C94.2573 62.0742 88.3449 63.0608 83.5425 62.4611Z" fill="#6E4D40"/>
</svg>
